<?xml version="1.0" encoding="utf-8"?>
<!-- Generator: Adobe Illustrator 15.0.0, SVG Export Plug-In . SVG Version: 6.00 Build 0)  -->
<!DOCTYPE svg PUBLIC "-//W3C//DTD SVG 1.1//EN" "http://www.w3.org/Graphics/SVG/1.1/DTD/svg11.dtd">
<svg version="1.1" id="Layer_1" xmlns="http://www.w3.org/2000/svg" xmlns:xlink="http://www.w3.org/1999/xlink" x="0px" y="0px"
	 width="159px" height="158px" viewBox="0 0 159 158" enable-background="new 0 0 159 158" xml:space="preserve">
<path fill="#FFFFFF" stroke="#000000" stroke-miterlimit="10" d="M-43,89.5"/>
<g>
	<path fill="#FFFFFF" d="M93.195,8c4.426,0.333,8.288,2.766,8.288,8.981c0,6.667-4.443,9.019-9.26,9.019H70.002
		c-10.186,0-9.445,0.056-15.557,7.833L34.5,59.694C28.76,66.917,29,74.814,29,83.889v36.297C29,130.371,30.742,134,41.297,134
		h29.444C77.408,134,83,132.039,83,123.89V105H65.001c-4.814,0-9.259-2.834-9.259-9.5c0-6.667,4.444-9.5,9.259-9.5H101v36.965
		c0,17.363-10.764,28.322-27.403,29.035H154V8H93.195z M124.5,151.003c-6.905,0-12.503-5.598-12.503-12.503
		s5.598-12.503,12.503-12.503s12.503,5.598,12.503,12.503S131.405,151.003,124.5,151.003z"/>
</g>
</svg>
